<svg width="360" height="720" viewBox="0 0 360 720" fill="none" xmlns="http://www.w3.org/2000/svg"><rect x="28" y="8" width="304" height="704" rx="48" fill="#10203D"/><rect x="42" y="26" width="276" height="668" rx="38" fill="white"/><rect x="42" y="26" width="276" height="285" rx="38" fill="url(#g)"/><rect x="142" y="40" width="78" height="20" rx="10" fill="#10152C"/><text x="72" y="104" font-family="Arial" font-size="26" font-weight="700" fill="white">Olá, Lucas! 👋</text><text x="72" y="136" font-family="Arial" font-size="15" fill="#DCE4FF">Como você está se sentindo hoje?</text><circle cx="180" cy="205" r="42" fill="#FFD35C"/><circle cx="165" cy="196" r="5" fill="#6B4500"/><circle cx="195" cy="196" r="5" fill="#6B4500"/><path d="M159 218 Q180 235 201 218" stroke="#6B4500" stroke-width="6" fill="none" stroke-linecap="round"/><text x="158" y="272" font-family="Arial" font-size="20" font-weight="700" fill="white">Bem</text><rect x="66" y="336" width="228" height="96" rx="18" fill="white" filter="url(#s)"/><text x="88" y="370" font-family="Arial" font-size="15" font-weight="700" fill="#10203D">Missão do dia</text><text x="88" y="398" font-family="Arial" font-size="17" font-weight="700" fill="#10203D">Identificar gatilhos</text><text x="88" y="421" font-family="Arial" font-size="13" fill="#6E7C91">2 de 3 concluídas</text><text x="262" y="396" font-family="Arial" font-size="24" fill="#6046D8">›</text><text x="66" y="475" font-family="Arial" font-size="17" font-weight="700" fill="#10203D">Jogos sugeridos</text><rect x="66" y="500" width="228" height="84" rx="18" fill="#F7FAFF" stroke="#E5ECF7"/><rect x="84" y="520" width="46" height="46" rx="12" fill="#E6FBF8"/><text x="95" y="551" font-family="Arial" font-size="24">🚦</text><text x="144" y="532" font-family="Arial" font-size="15" font-weight="700" fill="#10203D">Semáforo das</text><text x="144" y="553" font-family="Arial" font-size="15" font-weight="700" fill="#10203D">Emoções</text><rect x="238" y="526" width="44" height="28" rx="14" fill="#EEEAFE"/><text x="248" y="545" font-family="Arial" font-size="13" fill="#6046D8">Jogar</text><g font-family="Arial" font-size="12" fill="#708099"><text x="70" y="662">Início</text><text x="126" y="662">Diário</text><text x="186" y="662">Jogos</text><text x="245" y="662">Perfil</text></g><defs><linearGradient id="g" x1="42" y1="26" x2="318" y2="311" gradientUnits="userSpaceOnUse"><stop stop-color="#5836DB"/><stop offset="1" stop-color="#14B8A6"/></linearGradient><filter id="s" x="50" y="320" width="260" height="128" filterUnits="userSpaceOnUse"><feDropShadow dx="0" dy="10" stdDeviation="10" flood-opacity=".12"/></filter></defs></svg>