<svg width="920" height="620" viewBox="0 0 920 620" fill="none" xmlns="http://www.w3.org/2000/svg"><rect width="920" height="620" rx="34" fill="#fff"/><rect x="0" y="0" width="198" height="620" rx="34" fill="#0F1F3A"/><circle cx="42" cy="42" r="12" fill="#22C7B8"/><text x="62" y="49" font-family="Arial" font-size="22" font-weight="700" fill="white">MindSteps</text><g font-family="Arial" font-size="17" fill="#B9C6D8"><rect x="24" y="92" width="150" height="42" rx="12" fill="#6046D8" opacity=".9"/><text x="54" y="119" fill="white">Resumo</text><text x="54" y="177">Pacientes</text><text x="54" y="232">Atividades</text><text x="54" y="287">Biblioteca</text><text x="54" y="342">Relatórios</text><text x="54" y="397">Mensagens</text></g><text x="232" y="66" font-family="Arial" font-size="26" font-weight="700" fill="#13254A">Olá, Psicóloga Ana 👋</text><text x="232" y="96" font-family="Arial" font-size="16" fill="#74819A">Visão geral dos seus pacientes</text><g><rect x="232" y="128" width="152" height="110" rx="16" fill="#F7FAFF" stroke="#E4EAF4"/><text x="254" y="163" font-family="Arial" font-size="15" fill="#74819A">Pacientes ativos</text><text x="254" y="204" font-family="Arial" font-size="34" font-weight="700" fill="#13254A">28</text><circle cx="346" cy="190" r="23" fill="#D9FBF6"/><text x="336" y="198" font-family="Arial" font-size="20">👥</text></g><g><rect x="408" y="128" width="180" height="110" rx="16" fill="#F7FAFF" stroke="#E4EAF4"/><text x="430" y="163" font-family="Arial" font-size="15" fill="#74819A">Atividades concluídas</text><text x="430" y="204" font-family="Arial" font-size="34" font-weight="700" fill="#13254A">142</text><circle cx="548" cy="190" r="23" fill="#EEF0FF"/><text x="539" y="198" font-family="Arial" font-size="20">✅</text></g><g><rect x="612" y="128" width="150" height="110" rx="16" fill="#F7FAFF" stroke="#E4EAF4"/><text x="634" y="163" font-family="Arial" font-size="15" fill="#74819A">Engajamento</text><text x="634" y="204" font-family="Arial" font-size="34" font-weight="700" fill="#13254A">87%</text></g><g><rect x="786" y="128" width="110" height="110" rx="16" fill="#F7FAFF" stroke="#E4EAF4"/><text x="806" y="163" font-family="Arial" font-size="15" fill="#74819A">Humor</text><text x="806" y="205" font-family="Arial" font-size="26">🙂</text></g><rect x="232" y="270" width="480" height="210" rx="18" fill="#fff" stroke="#E4EAF4"/><text x="254" y="306" font-family="Arial" font-size="18" font-weight="700" fill="#13254A">Engajamento semanal</text><polyline points="270,432 330,392 390,410 450,354 510,388 570,337 650,318" fill="none" stroke="#415CFF" stroke-width="7" stroke-linecap="round" stroke-linejoin="round"/><g stroke="#E7ECF5"><line x1="270" y1="360" x2="670" y2="360"/><line x1="270" y1="415" x2="670" y2="415"/></g><rect x="735" y="270" width="161" height="210" rx="18" fill="#fff" stroke="#E4EAF4"/><text x="758" y="307" font-family="Arial" font-size="18" font-weight="700" fill="#13254A">Alertas</text><rect x="758" y="340" width="112" height="44" rx="10" fill="#FFF1F1"/><text x="772" y="368" font-family="Arial" font-size="15" fill="#D54D4D">2 pacientes</text><rect x="758" y="397" width="112" height="44" rx="10" fill="#FFF7E8"/><text x="772" y="425" font-family="Arial" font-size="15" fill="#C37B1D">1 paciente</text><rect x="232" y="506" width="664" height="82" rx="18" fill="#fff" stroke="#E4EAF4"/><text x="254" y="540" font-family="Arial" font-size="18" font-weight="700" fill="#13254A">Atividades recentes</text><text x="254" y="570" font-family="Arial" font-size="16" fill="#65748D">Lucas completou “Semáforo das Emoções” • Maria completou “Cartas Sabotadoras”</text></svg>